<?xml version="1.0" encoding="UTF-8" standalone="no"?>
<!-- Created with Inkscape (http://www.inkscape.org/) -->
<svg id="svg2" xmlns:rdf="http://www.w3.org/1999/02/22-rdf-syntax-ns#" xmlns="http://www.w3.org/2000/svg" height="185.46mm" width="370.92mm" version="1.1" xmlns:cc="http://creativecommons.org/ns#" xmlns:dc="http://purl.org/dc/elements/1.1/" viewBox="0 0 1314.2858 657.14289">
 <metadata id="metadata7">
  <rdf:RDF>
   <cc:Work rdf:about="">
    <dc:format>image/svg+xml</dc:format>
    <dc:type rdf:resource="http://purl.org/dc/dcmitype/StillImage"/>
    <dc:title/>
   </cc:Work>
  </rdf:RDF>
 </metadata>
 <g id="layer1" transform="translate(917.14 -18.076)">
  <g id="g8447">
   <g id="g8492" fill-rule="evenodd" transform="translate(251.43 8.5714)">
    <path id="path8403" fill="#fff" d="m-997.52 559.18a657.14 328.57 0 0 1 42.376 -463.47 657.14 328.57 0 0 1 927.06 19.756 657.14 328.57 0 0 1 -36.648 463.59 657.14 328.57 0 0 1 -927.29 -16.892"/>
    <g id="g8184" transform="translate(197.14 68.571)">
     <rect id="rect8074" height="199.86" width="25.579" y="152.43" x="-374.22"/>
     <path id="rect8076" d="m-1060 223.77h711.47v111.47h-711.47z"/>
     <rect id="rect8078" height="199.86" width="25.579" y="152.43" x="-1059.9"/>
     <path id="path8089" d="m-990.49 333.79-6.1859 10.714-6.1859 10.714-6.1859-10.714-6.1859-10.714h12.372z"/>
     <path id="path8091" d="m-1007.6 333.79-6.1859 10.714-6.1859 10.714-6.1859-10.714-6.1859-10.714h12.372z"/>
     <path id="path8093" d="m-973.34 333.79-6.1859 10.714-6.1859 10.714-6.1859-10.714-6.1859-10.714h12.372z"/>
     <path id="path8095" d="m-956.2 333.79-6.1859 10.714-6.1859 10.714-6.1859-10.714-6.1859-10.714h12.372z"/>
     <path id="path8097" d="m-939.06 333.79-6.1859 10.714-6.1859 10.714-6.1859-10.714-6.1859-10.714h12.372z"/>
     <path id="path8099" d="m-921.91 333.79-6.1859 10.714-6.1859 10.714-6.1859-10.714-6.1859-10.714h12.372z"/>
     <path id="path8101" d="m-904.77 333.79-6.1859 10.714-6.1859 10.714-6.1859-10.714-6.1859-10.714h12.372z"/>
     <path id="path8103" d="m-887.63 333.79-6.1859 10.714-6.1859 10.714-6.1859-10.714-6.1859-10.714h12.372z"/>
     <path id="path8105" d="m-870.49 333.79-6.1859 10.714-6.1859 10.714-6.1859-10.714-6.1859-10.714h12.372z"/>
     <path id="path8107" d="m-853.34 333.79-6.1859 10.714-6.1859 10.714-6.1859-10.714-6.1859-10.714h12.372z"/>
     <path id="path8109" d="m-836.2 333.79-6.1859 10.714-6.1859 10.714-6.1859-10.714-6.1859-10.714h12.372z"/>
     <path id="path8111" d="m-819.06 333.79-6.1859 10.714-6.1859 10.714-6.1859-10.714-6.1859-10.714h12.372z"/>
     <path id="path8113" d="m-801.91 333.79-6.1859 10.714-6.1859 10.714-6.1859-10.714-6.1859-10.714h12.372z"/>
     <path id="path8115" d="m-784.77 333.79-6.1859 10.714-6.1859 10.714-6.1859-10.714-6.1859-10.714h12.372z"/>
     <path id="path8117" d="m-767.63 333.79-6.1859 10.714-6.1859 10.714-6.1859-10.714-6.1859-10.714h12.372z"/>
     <path id="path8119" d="m-750.49 333.79-6.1859 10.714-6.1859 10.714-6.1859-10.714-6.1859-10.714h12.372z"/>
     <path id="path8125" d="m-733.34 333.79-6.1859 10.714-6.1859 10.714-6.1859-10.714-6.1859-10.714h12.372z"/>
     <path id="path8127" d="m-716.2 333.79-6.1859 10.714-6.1859 10.714-6.1859-10.714-6.1859-10.714h12.372z"/>
     <path id="path8129" d="m-699.06 333.79-6.1859 10.714-6.1859 10.714-6.1859-10.714-6.1859-10.714h12.372z"/>
     <path id="path8131" d="m-681.91 333.79-6.1859 10.714-6.1859 10.714-6.1859-10.714-6.1859-10.714h12.372z"/>
     <path id="path8133" d="m-664.77 333.79-6.1859 10.714-6.1859 10.714-6.1859-10.714-6.1859-10.714h12.372z"/>
     <path id="path8135" d="m-647.63 333.79-6.1859 10.714-6.1859 10.714-6.1859-10.714-6.1859-10.714h12.372z"/>
     <path id="path8137" d="m-630.49 333.79-6.1859 10.714-6.1859 10.714-6.1859-10.714-6.1859-10.714h12.372z"/>
     <path id="path8139" d="m-613.34 333.79-6.1859 10.714-6.1859 10.714-6.1859-10.714-6.1859-10.714h12.372z"/>
     <path id="path8141" d="m-596.2 333.79-6.1859 10.714-6.1859 10.714-6.1859-10.714-6.1859-10.714h12.372z"/>
     <path id="path8145" d="m-579.06 333.79-6.1859 10.714-6.1859 10.714-6.1859-10.714-6.1859-10.714h12.372z"/>
     <path id="path8147" d="m-561.91 333.79-6.1859 10.714-6.1859 10.714-6.1859-10.714-6.1859-10.714h12.372z"/>
     <path id="path8151" d="m-544.77 333.79-6.1859 10.714-6.1859 10.714-6.1859-10.714-6.1859-10.714h12.372z"/>
     <path id="path8153" d="m-527.63 333.79-6.1859 10.714-6.1859 10.714-6.1859-10.714-6.1859-10.714h12.372z"/>
     <path id="path8155" d="m-510.48 333.79-6.1859 10.714-6.1859 10.714-6.1859-10.714-6.1859-10.714h12.372z"/>
     <path id="path8159" d="m-493.34 333.79-6.1859 10.714-6.1859 10.714-6.1859-10.714-6.1859-10.714h12.372z"/>
     <path id="path8163" d="m-476.2 333.79-6.1859 10.714-6.1859 10.714-6.1859-10.714-6.1859-10.714h12.372z"/>
     <path id="path8167" d="m-459.06 333.79-6.1859 10.714-6.1859 10.714-6.1859-10.714-6.1859-10.714h12.372z"/>
     <path id="path8169" d="m-441.91 333.79-6.1859 10.714-6.1859 10.714-6.1859-10.714-6.1859-10.714h12.372z"/>
     <path id="path8171" d="m-427.63 333.79-6.1859 10.714-6.1859 10.714-6.1859-10.714-6.1859-10.714h12.372z"/>
     <path id="path8173" d="m-410.48 333.79-6.1859 10.714-6.1859 10.714-6.1859-10.714-6.1859-10.714h12.372z"/>
     <path id="path8175" d="m-393.34 333.79-6.1859 10.714-6.1859 10.714-6.1859-10.714-6.1859-10.714h12.372z"/>
     <path id="path8177" d="m-376.2 333.79-6.1859 10.714-6.1859 10.714-6.1859-10.714-6.1859-10.714h12.372z"/>
    </g>
   </g>
  </g>
 </g>
</svg>
