<?xml version="1.0" encoding="UTF-8" standalone="no"?>
<!-- Created with Inkscape (http://www.inkscape.org/) -->
<svg id="svg2" xmlns:rdf="http://www.w3.org/1999/02/22-rdf-syntax-ns#" xmlns="http://www.w3.org/2000/svg" xmlns:osb="http://www.openswatchbook.org/uri/2009/osb" height="119.66mm" width="120.79mm" version="1.1" xmlns:cc="http://creativecommons.org/ns#" xmlns:xlink="http://www.w3.org/1999/xlink" viewBox="0 0 428.00326 424.00003" xmlns:dc="http://purl.org/dc/elements/1.1/">
 <metadata id="metadata7">
  <rdf:RDF>
   <cc:Work rdf:about="">
    <dc:format>image/svg+xml</dc:format>
    <dc:type rdf:resource="http://purl.org/dc/dcmitype/StillImage"/>
    <dc:title/>
   </cc:Work>
  </rdf:RDF>
 </metadata>
 <g id="layer1" transform="translate(892 -210.36)">
  <g id="g8071" transform="translate(198,92)">
   <path id="path8364" d="m-884.83 118.54a214 212 0 0 0 -135.67 55.443 214 212 0 0 0 -13.801 299.04l1.793 1.9258a214 212 0 0 0 301.97 10.898 214 212 0 0 0 11.936 -299.12 214 212 0 0 0 -166.23 -68.191z" fill-rule="evenodd" stroke-width="0" fill="#fff"/>
   <path id="path8351" d="m-861.86 502.65-9.5-102.6 27.461-66.343 39.994-32.417 23.819-5.0798-21.319 0.57977 16.542-40.192 22.556-20.699 32.459-6.0412-25.959 2.5412 5.8121-28.056 20.506-14.336-22.006 13.836-7.3121 30.056-25.556 18.199-10.955-29.34-18.927-24.844-6.5334-26.378 4.0334 23.878 20.927 22.844 8.4549 34.34-18.042 47.192-38.494 26.417-10.188-55.423 20.058-44.437 28.825-24.516 29.433-9.8138-24.433 5.3138 3.9755-22.954-6.9755 23.454-28.325 24.016-20.558 51.937-36.295-42.902-2.4434-43.49 15.406-25.22-14.406 18.72-12.763-18.834 12.263 21.834-1.0566 40.49-37.198-5.9774-15.715-21.598 11.715 20.098-24.487 10.341 24.987-9.3413 39.698 8.9774 38.295 39.402 5.6879 65.923-32.461 52.843-32.054-47.024-7.0246-43.998c4.3468-10.087 11.256-25.799 12.54-29.76l25.082-15.136-22.082 15.636-14.04 29.76-17.308-24.524 16.308 18.524 11.525 56.498-37.277-29.668-12.237-33.833 6.5832-29.386-9.5832 28.386 10.237 29.333-30.913-4.4258-25.104-13.685 19.104 14.685-19.565 13.668 22.565-12.668 33.413 4.4258 34.277 20.668 32.554 74.524-1.5 96.1" stroke="#000"/>
  </g>
 </g>
</svg>
